<svg xmlns="http://www.w3.org/2000/svg" width="880" height="498" viewBox="0 0 880 498" role="img" aria-label="Plugins: A Pi extension compiled into the executable vs loaded at run time. Lower is better.">
<style>text{font-family:-apple-system, BlinkMacSystemFont, 'Segoe UI', 'Noto Sans', Helvetica, Arial, sans-serif}</style>
<text x="24" y="32" font-size="21" font-weight="650" fill="#1f2328">Plugins</text>
<text x="24" y="56" font-size="13.5" fill="#59636e">A Pi extension compiled into the executable vs loaded at run time. Lower is better.</text>
<text x="24" y="96" font-size="15" font-weight="600" fill="#1f2328">Hot loop in the plugin (/words)</text>
<text x="294" y="126.5" font-size="13.5" text-anchor="end" fill="#59636e">Pi-Bolt (LTO+CFG AOT), compiled in</text>
<path d="M304,114 h18.8 a4,4 0 0 1 4,4 v8 a4,4 0 0 1 -4,4 h-18.8 z" fill="#2a78d6"/>
<text x="334.8" y="126.5" font-size="13.5" font-weight="650" fill="#1f2328">37 ms</text>
<text x="294" y="156.5" font-size="13.5" text-anchor="end" fill="#59636e">Pi-Bolt (JIT on), compiled in</text>
<path d="M304,144 h18.6 a4,4 0 0 1 4,4 v8 a4,4 0 0 1 -4,4 h-18.6 z" fill="#2a78d6"/>
<text x="334.6" y="156.5" font-size="13.5" font-weight="400" fill="#1f2328">37 ms</text>
<text x="294" y="186.5" font-size="13.5" text-anchor="end" fill="#59636e">Pi-Bolt (LTO+CFG AOT), run time</text>
<path d="M304,174 h464.0 a4,4 0 0 1 4,4 v8 a4,4 0 0 1 -4,4 h-464.0 z" fill="#2a78d6"/>
<text x="780.0" y="186.5" font-size="13.5" font-weight="400" fill="#1f2328">758 ms</text>
<text x="294" y="216.5" font-size="13.5" text-anchor="end" fill="#59636e">Pi-Bolt (JIT on), run time</text>
<path d="M304,204 h15.8 a4,4 0 0 1 4,4 v8 a4,4 0 0 1 -4,4 h-15.8 z" fill="#2a78d6"/>
<text x="331.8" y="216.5" font-size="13.5" font-weight="400" fill="#1f2328">32 ms</text>
<text x="294" y="246.5" font-size="13.5" text-anchor="end" fill="#59636e">Pi 1.0.3 on stock Bun 1.4.2, run time</text>
<path d="M304,234 h15.7 a4,4 0 0 1 4,4 v8 a4,4 0 0 1 -4,4 h-15.7 z" fill="#848d97"/>
<text x="331.7" y="246.5" font-size="13.5" font-weight="400" fill="#1f2328">32 ms</text>
<line x1="304" y1="108" x2="304" y2="256" stroke="#d1d9e0"/>
<text x="24" y="306" font-size="15" font-weight="600" fill="#1f2328">Launch to interactive</text>
<text x="294" y="336.5" font-size="13.5" text-anchor="end" fill="#59636e">Pi-Bolt (LTO+CFG AOT), compiled in</text>
<path d="M304,324 h212.7 a4,4 0 0 1 4,4 v8 a4,4 0 0 1 -4,4 h-212.7 z" fill="#2a78d6"/>
<text x="528.7" y="336.5" font-size="13.5" font-weight="650" fill="#1f2328">116 ms</text>
<text x="294" y="366.5" font-size="13.5" text-anchor="end" fill="#59636e">Pi-Bolt (JIT on), compiled in</text>
<path d="M304,354 h238.6 a4,4 0 0 1 4,4 v8 a4,4 0 0 1 -4,4 h-238.6 z" fill="#2a78d6"/>
<text x="554.6" y="366.5" font-size="13.5" font-weight="400" fill="#1f2328">130 ms</text>
<text x="294" y="396.5" font-size="13.5" text-anchor="end" fill="#59636e">Pi-Bolt (LTO+CFG AOT), run time</text>
<path d="M304,384 h267.8 a4,4 0 0 1 4,4 v8 a4,4 0 0 1 -4,4 h-267.8 z" fill="#2a78d6"/>
<text x="583.8" y="396.5" font-size="13.5" font-weight="400" fill="#1f2328">146 ms</text>
<text x="294" y="426.5" font-size="13.5" text-anchor="end" fill="#59636e">Pi-Bolt (JIT on), run time</text>
<path d="M304,414 h290.7 a4,4 0 0 1 4,4 v8 a4,4 0 0 1 -4,4 h-290.7 z" fill="#2a78d6"/>
<text x="606.7" y="426.5" font-size="13.5" font-weight="400" fill="#1f2328">158 ms</text>
<text x="294" y="456.5" font-size="13.5" text-anchor="end" fill="#59636e">Pi 1.0.3 on stock Bun 1.4.2, run time</text>
<path d="M304,444 h464.0 a4,4 0 0 1 4,4 v8 a4,4 0 0 1 -4,4 h-464.0 z" fill="#848d97"/>
<text x="780.0" y="456.5" font-size="13.5" font-weight="400" fill="#1f2328">251 ms</text>
<line x1="304" y1="318" x2="304" y2="466" stroke="#d1d9e0"/>
</svg>
