<svg xmlns="http://www.w3.org/2000/svg" width="880" height="3318" viewBox="0 0 880 3318" role="img" aria-label="Memory and streaming: Lower is better. Private bytes = commit charge. Ratios compare Pi-Bolt with Bun.">
<style>text{font-family:-apple-system, BlinkMacSystemFont, 'Segoe UI', 'Noto Sans', Helvetica, Arial, sans-serif}</style>
<text x="24" y="32" font-size="21" font-weight="650" fill="#1f2328">Memory and streaming</text>
<text x="24" y="56" font-size="13.5" fill="#59636e">Lower is better. Private bytes = commit charge. Ratios compare Pi-Bolt with Bun.</text>
<text x="24" y="96" font-size="15" font-weight="600" fill="#1f2328">Peak working set, interactive session</text>
<text x="223" y="126.5" font-size="13.5" text-anchor="end" fill="#59636e">Pi-Bolt (LTO+CFG AOT)</text>
<path d="M233,114 h260.8 a4,4 0 0 1 4,4 v8 a4,4 0 0 1 -4,4 h-260.8 z" fill="#2a78d6"/>
<text x="505.8" y="126.5" font-size="13.5" font-weight="650" fill="#1f2328">96 MB</text>
<rect x="549.6" y="111.5" width="71.2" height="22" rx="11.0" fill="#ddeaf9"/><text x="556.6" y="126.5" font-size="12" font-weight="600" fill="#1f2328">1.7× less</text>
<text x="223" y="156.5" font-size="13.5" text-anchor="end" fill="#59636e">Pi 1.0.3 on stock Bun 1.4.2</text>
<path d="M233,144 h449.9 a4,4 0 0 1 4,4 v8 a4,4 0 0 1 -4,4 h-449.9 z" fill="#848d97"/>
<text x="694.9" y="156.5" font-size="13.5" font-weight="400" fill="#1f2328">164 MB</text>
<text x="223" y="186.5" font-size="13.5" text-anchor="end" fill="#59636e">Node 22</text>
<path d="M233,174 h456.8 a4,4 0 0 1 4,4 v8 a4,4 0 0 1 -4,4 h-456.8 z" fill="#848d97"/>
<text x="701.8" y="186.5" font-size="13.5" font-weight="400" fill="#1f2328">167 MB</text>
<text x="223" y="216.5" font-size="13.5" text-anchor="end" fill="#59636e">Node 24</text>
<path d="M233,204 h535.0 a4,4 0 0 1 4,4 v8 a4,4 0 0 1 -4,4 h-535.0 z" fill="#848d97"/>
<text x="780.0" y="216.5" font-size="13.5" font-weight="400" fill="#1f2328">195 MB</text>
<line x1="233" y1="108" x2="233" y2="226" stroke="#d1d9e0"/>
<text x="24" y="276" font-size="15" font-weight="600" fill="#1f2328">Peak private working set, interactive session</text>
<text x="223" y="306.5" font-size="13.5" text-anchor="end" fill="#59636e">Pi-Bolt (LTO+CFG AOT)</text>
<path d="M233,294 h196.6 a4,4 0 0 1 4,4 v8 a4,4 0 0 1 -4,4 h-196.6 z" fill="#2a78d6"/>
<text x="441.6" y="306.5" font-size="13.5" font-weight="650" fill="#1f2328">57 MB</text>
<rect x="485.4" y="291.5" width="71.2" height="22" rx="11.0" fill="#ddeaf9"/><text x="492.4" y="306.5" font-size="12" font-weight="600" fill="#1f2328">2.2× less</text>
<text x="223" y="336.5" font-size="13.5" text-anchor="end" fill="#59636e">Pi 1.0.3 on stock Bun 1.4.2</text>
<path d="M233,324 h441.9 a4,4 0 0 1 4,4 v8 a4,4 0 0 1 -4,4 h-441.9 z" fill="#848d97"/>
<text x="686.9" y="336.5" font-size="13.5" font-weight="400" fill="#1f2328">126 MB</text>
<text x="223" y="366.5" font-size="13.5" text-anchor="end" fill="#59636e">Node 22</text>
<path d="M233,354 h469.1 a4,4 0 0 1 4,4 v8 a4,4 0 0 1 -4,4 h-469.1 z" fill="#848d97"/>
<text x="714.1" y="366.5" font-size="13.5" font-weight="400" fill="#1f2328">134 MB</text>
<text x="223" y="396.5" font-size="13.5" text-anchor="end" fill="#59636e">Node 24</text>
<path d="M233,384 h535.0 a4,4 0 0 1 4,4 v8 a4,4 0 0 1 -4,4 h-535.0 z" fill="#848d97"/>
<text x="780.0" y="396.5" font-size="13.5" font-weight="400" fill="#1f2328">153 MB</text>
<line x1="233" y1="288" x2="233" y2="406" stroke="#d1d9e0"/>
<text x="24" y="456" font-size="15" font-weight="600" fill="#1f2328">Peak private bytes (commit), interactive session</text>
<text x="223" y="486.5" font-size="13.5" text-anchor="end" fill="#59636e">Pi-Bolt (LTO+CFG AOT)</text>
<path d="M233,474 h173.6 a4,4 0 0 1 4,4 v8 a4,4 0 0 1 -4,4 h-173.6 z" fill="#2a78d6"/>
<text x="418.6" y="486.5" font-size="13.5" font-weight="650" fill="#1f2328">114 MB</text>
<rect x="469.6" y="471.5" width="71.2" height="22" rx="11.0" fill="#ddeaf9"/><text x="476.6" y="486.5" font-size="12" font-weight="600" fill="#1f2328">3.0× less</text>
<text x="223" y="516.5" font-size="13.5" text-anchor="end" fill="#59636e">Pi 1.0.3 on stock Bun 1.4.2</text>
<path d="M233,504 h535.0 a4,4 0 0 1 4,4 v8 a4,4 0 0 1 -4,4 h-535.0 z" fill="#848d97"/>
<text x="780.0" y="516.5" font-size="13.5" font-weight="400" fill="#1f2328">344 MB</text>
<text x="223" y="546.5" font-size="13.5" text-anchor="end" fill="#59636e">Node 22</text>
<path d="M233,534 h273.8 a4,4 0 0 1 4,4 v8 a4,4 0 0 1 -4,4 h-273.8 z" fill="#848d97"/>
<text x="518.8" y="546.5" font-size="13.5" font-weight="400" fill="#1f2328">178 MB</text>
<text x="223" y="576.5" font-size="13.5" text-anchor="end" fill="#59636e">Node 24</text>
<path d="M233,564 h417.9 a4,4 0 0 1 4,4 v8 a4,4 0 0 1 -4,4 h-417.9 z" fill="#848d97"/>
<text x="662.9" y="576.5" font-size="13.5" font-weight="400" fill="#1f2328">270 MB</text>
<line x1="233" y1="468" x2="233" y2="586" stroke="#d1d9e0"/>
<text x="24" y="636" font-size="15" font-weight="600" fill="#1f2328">System commit rise, interactive session</text>
<text x="223" y="666.5" font-size="13.5" text-anchor="end" fill="#59636e">Pi-Bolt (LTO+CFG AOT)</text>
<path d="M233,654 h179.4 a4,4 0 0 1 4,4 v8 a4,4 0 0 1 -4,4 h-179.4 z" fill="#2a78d6"/>
<text x="424.4" y="666.5" font-size="13.5" font-weight="650" fill="#1f2328">117 MB</text>
<rect x="475.4" y="651.5" width="71.2" height="22" rx="11.0" fill="#ddeaf9"/><text x="482.4" y="666.5" font-size="12" font-weight="600" fill="#1f2328">2.9× less</text>
<text x="223" y="696.5" font-size="13.5" text-anchor="end" fill="#59636e">Pi 1.0.3 on stock Bun 1.4.2</text>
<path d="M233,684 h535.0 a4,4 0 0 1 4,4 v8 a4,4 0 0 1 -4,4 h-535.0 z" fill="#848d97"/>
<text x="780.0" y="696.5" font-size="13.5" font-weight="400" fill="#1f2328">344 MB</text>
<text x="223" y="726.5" font-size="13.5" text-anchor="end" fill="#59636e">Node 22</text>
<path d="M233,714 h264.2 a4,4 0 0 1 4,4 v8 a4,4 0 0 1 -4,4 h-264.2 z" fill="#848d97"/>
<text x="509.2" y="726.5" font-size="13.5" font-weight="400" fill="#1f2328">171 MB</text>
<text x="223" y="756.5" font-size="13.5" text-anchor="end" fill="#59636e">Node 24</text>
<path d="M233,744 h417.9 a4,4 0 0 1 4,4 v8 a4,4 0 0 1 -4,4 h-417.9 z" fill="#848d97"/>
<text x="662.9" y="756.5" font-size="13.5" font-weight="400" fill="#1f2328">269 MB</text>
<line x1="233" y1="648" x2="233" y2="766" stroke="#d1d9e0"/>
<text x="24" y="816" font-size="15" font-weight="600" fill="#1f2328">Private working set, ConPTY session</text>
<text x="223" y="846.5" font-size="13.5" text-anchor="end" fill="#59636e">Pi-Bolt (LTO+CFG AOT)</text>
<path d="M233,834 h96.3 a4,4 0 0 1 4,4 v8 a4,4 0 0 1 -4,4 h-96.3 z" fill="#2a78d6"/>
<text x="341.3" y="846.5" font-size="13.5" font-weight="650" fill="#1f2328">33 MB</text>
<rect x="385.1" y="831.5" width="71.2" height="22" rx="11.0" fill="#ddeaf9"/><text x="392.1" y="846.5" font-size="12" font-weight="600" fill="#1f2328">2.9× less</text>
<text x="223" y="876.5" font-size="13.5" text-anchor="end" fill="#59636e">Pi 1.0.3 on stock Bun 1.4.2</text>
<path d="M233,864 h291.5 a4,4 0 0 1 4,4 v8 a4,4 0 0 1 -4,4 h-291.5 z" fill="#848d97"/>
<text x="536.5" y="876.5" font-size="13.5" font-weight="400" fill="#1f2328">98 MB</text>
<text x="223" y="906.5" font-size="13.5" text-anchor="end" fill="#59636e">Node 22</text>
<path d="M233,894 h295.4 a4,4 0 0 1 4,4 v8 a4,4 0 0 1 -4,4 h-295.4 z" fill="#848d97"/>
<text x="540.4" y="906.5" font-size="13.5" font-weight="400" fill="#1f2328">99 MB</text>
<text x="223" y="936.5" font-size="13.5" text-anchor="end" fill="#59636e">Node 24</text>
<path d="M233,924 h535.0 a4,4 0 0 1 4,4 v8 a4,4 0 0 1 -4,4 h-535.0 z" fill="#848d97"/>
<text x="780.0" y="936.5" font-size="13.5" font-weight="400" fill="#1f2328">178 MB</text>
<line x1="233" y1="828" x2="233" y2="946" stroke="#d1d9e0"/>
<text x="24" y="996" font-size="15" font-weight="600" fill="#1f2328">Private bytes (commit), ConPTY session</text>
<text x="223" y="1026.5" font-size="13.5" text-anchor="end" fill="#59636e">Pi-Bolt (LTO+CFG AOT)</text>
<path d="M233,1014 h169.4 a4,4 0 0 1 4,4 v8 a4,4 0 0 1 -4,4 h-169.4 z" fill="#2a78d6"/>
<text x="414.4" y="1026.5" font-size="13.5" font-weight="650" fill="#1f2328">88 MB</text>
<rect x="458.2" y="1011.5" width="71.2" height="22" rx="11.0" fill="#ddeaf9"/><text x="465.2" y="1026.5" font-size="12" font-weight="600" fill="#1f2328">3.1× less</text>
<text x="223" y="1056.5" font-size="13.5" text-anchor="end" fill="#59636e">Pi 1.0.3 on stock Bun 1.4.2</text>
<path d="M233,1044 h535.0 a4,4 0 0 1 4,4 v8 a4,4 0 0 1 -4,4 h-535.0 z" fill="#848d97"/>
<text x="780.0" y="1056.5" font-size="13.5" font-weight="400" fill="#1f2328">273 MB</text>
<text x="223" y="1086.5" font-size="13.5" text-anchor="end" fill="#59636e">Node 22</text>
<path d="M233,1074 h270.5 a4,4 0 0 1 4,4 v8 a4,4 0 0 1 -4,4 h-270.5 z" fill="#848d97"/>
<text x="515.5" y="1086.5" font-size="13.5" font-weight="400" fill="#1f2328">139 MB</text>
<text x="223" y="1116.5" font-size="13.5" text-anchor="end" fill="#59636e">Node 24</text>
<path d="M233,1104 h477.7 a4,4 0 0 1 4,4 v8 a4,4 0 0 1 -4,4 h-477.7 z" fill="#848d97"/>
<text x="722.7" y="1116.5" font-size="13.5" font-weight="400" fill="#1f2328">244 MB</text>
<line x1="233" y1="1008" x2="233" y2="1126" stroke="#d1d9e0"/>
<text x="24" y="1176" font-size="15" font-weight="600" fill="#1f2328">Private working set, end of 4.2M-token session</text>
<text x="223" y="1206.5" font-size="13.5" text-anchor="end" fill="#59636e">Pi-Bolt (LTO+CFG AOT)</text>
<path d="M233,1194 h183.8 a4,4 0 0 1 4,4 v8 a4,4 0 0 1 -4,4 h-183.8 z" fill="#2a78d6"/>
<text x="428.8" y="1206.5" font-size="13.5" font-weight="650" fill="#1f2328">148 MB</text>
<rect x="479.8" y="1191.5" width="71.2" height="22" rx="11.0" fill="#ddeaf9"/><text x="486.8" y="1206.5" font-size="12" font-weight="600" fill="#1f2328">1.6× less</text>
<text x="223" y="1236.5" font-size="13.5" text-anchor="end" fill="#59636e">Pi 1.0.3 on stock Bun 1.4.2</text>
<path d="M233,1224 h289.2 a4,4 0 0 1 4,4 v8 a4,4 0 0 1 -4,4 h-289.2 z" fill="#848d97"/>
<text x="534.2" y="1236.5" font-size="13.5" font-weight="400" fill="#1f2328">230 MB</text>
<text x="223" y="1266.5" font-size="13.5" text-anchor="end" fill="#59636e">Node 22</text>
<path d="M233,1254 h474.8 a4,4 0 0 1 4,4 v8 a4,4 0 0 1 -4,4 h-474.8 z" fill="#848d97"/>
<text x="719.8" y="1266.5" font-size="13.5" font-weight="400" fill="#1f2328">376 MB</text>
<text x="223" y="1296.5" font-size="13.5" text-anchor="end" fill="#59636e">Node 24</text>
<path d="M233,1284 h535.0 a4,4 0 0 1 4,4 v8 a4,4 0 0 1 -4,4 h-535.0 z" fill="#848d97"/>
<text x="780.0" y="1296.5" font-size="13.5" font-weight="400" fill="#1f2328">423 MB</text>
<line x1="233" y1="1188" x2="233" y2="1306" stroke="#d1d9e0"/>
<text x="24" y="1356" font-size="15" font-weight="600" fill="#1f2328">Private bytes (commit), end of 4.2M-token session</text>
<text x="223" y="1386.5" font-size="13.5" text-anchor="end" fill="#59636e">Pi-Bolt (LTO+CFG AOT)</text>
<path d="M233,1374 h244.7 a4,4 0 0 1 4,4 v8 a4,4 0 0 1 -4,4 h-244.7 z" fill="#2a78d6"/>
<text x="489.7" y="1386.5" font-size="13.5" font-weight="650" fill="#1f2328">217 MB</text>
<rect x="540.7" y="1371.5" width="71.2" height="22" rx="11.0" fill="#ddeaf9"/><text x="547.7" y="1386.5" font-size="12" font-weight="600" fill="#1f2328">2.0× less</text>
<text x="223" y="1416.5" font-size="13.5" text-anchor="end" fill="#59636e">Pi 1.0.3 on stock Bun 1.4.2</text>
<path d="M233,1404 h496.7 a4,4 0 0 1 4,4 v8 a4,4 0 0 1 -4,4 h-496.7 z" fill="#848d97"/>
<text x="741.7" y="1416.5" font-size="13.5" font-weight="400" fill="#1f2328">437 MB</text>
<text x="223" y="1446.5" font-size="13.5" text-anchor="end" fill="#59636e">Node 22</text>
<path d="M233,1434 h478.5 a4,4 0 0 1 4,4 v8 a4,4 0 0 1 -4,4 h-478.5 z" fill="#848d97"/>
<text x="723.5" y="1446.5" font-size="13.5" font-weight="400" fill="#1f2328">421 MB</text>
<text x="223" y="1476.5" font-size="13.5" text-anchor="end" fill="#59636e">Node 24</text>
<path d="M233,1464 h535.0 a4,4 0 0 1 4,4 v8 a4,4 0 0 1 -4,4 h-535.0 z" fill="#848d97"/>
<text x="780.0" y="1476.5" font-size="13.5" font-weight="400" fill="#1f2328">471 MB</text>
<line x1="233" y1="1368" x2="233" y2="1486" stroke="#d1d9e0"/>
<text x="24" y="1536" font-size="15" font-weight="600" fill="#1f2328">Streaming replies (ConPTY), CPU</text>
<text x="223" y="1566.5" font-size="13.5" text-anchor="end" fill="#59636e">Pi-Bolt (LTO+CFG AOT)</text>
<path d="M233,1554 h316.3 a4,4 0 0 1 4,4 v8 a4,4 0 0 1 -4,4 h-316.3 z" fill="#2a78d6"/>
<text x="561.3" y="1566.5" font-size="13.5" font-weight="650" fill="#1f2328">959 ms</text>
<rect x="612.2" y="1551.5" width="71.2" height="22" rx="11.0" fill="#ddeaf9"/><text x="619.2" y="1566.5" font-size="12" font-weight="600" fill="#1f2328">1.2× less</text>
<text x="223" y="1596.5" font-size="13.5" text-anchor="end" fill="#59636e">Pi 1.0.3 on stock Bun 1.4.2</text>
<path d="M233,1584 h368.7 a4,4 0 0 1 4,4 v8 a4,4 0 0 1 -4,4 h-368.7 z" fill="#848d97"/>
<text x="613.7" y="1596.5" font-size="13.5" font-weight="400" fill="#1f2328">1,116 ms</text>
<text x="223" y="1626.5" font-size="13.5" text-anchor="end" fill="#59636e">Node 22</text>
<path d="M233,1614 h535.0 a4,4 0 0 1 4,4 v8 a4,4 0 0 1 -4,4 h-535.0 z" fill="#848d97"/>
<text x="780.0" y="1626.5" font-size="13.5" font-weight="400" fill="#1f2328">1,613 ms</text>
<text x="223" y="1656.5" font-size="13.5" text-anchor="end" fill="#59636e">Node 24</text>
<path d="M233,1644 h470.5 a4,4 0 0 1 4,4 v8 a4,4 0 0 1 -4,4 h-470.5 z" fill="#848d97"/>
<text x="715.5" y="1656.5" font-size="13.5" font-weight="400" fill="#1f2328">1,420 ms</text>
<line x1="233" y1="1548" x2="233" y2="1666" stroke="#d1d9e0"/>
<text x="24" y="1716" font-size="15" font-weight="600" fill="#1f2328">Frame time p99, streaming replies (ConPTY)</text>
<text x="223" y="1746.5" font-size="13.5" text-anchor="end" fill="#59636e">Pi-Bolt (LTO+CFG AOT)</text>
<path d="M233,1734 h449.6 a4,4 0 0 1 4,4 v8 a4,4 0 0 1 -4,4 h-449.6 z" fill="#2a78d6"/>
<text x="694.6" y="1746.5" font-size="13.5" font-weight="650" fill="#1f2328">17 ms</text>
<text x="223" y="1776.5" font-size="13.5" text-anchor="end" fill="#59636e">Pi 1.0.3 on stock Bun 1.4.2</text>
<path d="M233,1764 h460.3 a4,4 0 0 1 4,4 v8 a4,4 0 0 1 -4,4 h-460.3 z" fill="#848d97"/>
<text x="705.3" y="1776.5" font-size="13.5" font-weight="400" fill="#1f2328">17 ms</text>
<text x="223" y="1806.5" font-size="13.5" text-anchor="end" fill="#59636e">Node 22</text>
<path d="M233,1794 h532.3 a4,4 0 0 1 4,4 v8 a4,4 0 0 1 -4,4 h-532.3 z" fill="#848d97"/>
<text x="777.3" y="1806.5" font-size="13.5" font-weight="400" fill="#1f2328">20 ms</text>
<text x="223" y="1836.5" font-size="13.5" text-anchor="end" fill="#59636e">Node 24</text>
<path d="M233,1824 h535.0 a4,4 0 0 1 4,4 v8 a4,4 0 0 1 -4,4 h-535.0 z" fill="#848d97"/>
<text x="780.0" y="1836.5" font-size="13.5" font-weight="400" fill="#1f2328">20 ms</text>
<line x1="233" y1="1728" x2="233" y2="1846" stroke="#d1d9e0"/>
<text x="24" y="1896" font-size="15" font-weight="600" fill="#1f2328">Frame time p99, 20,000-char answer</text>
<text x="223" y="1926.5" font-size="13.5" text-anchor="end" fill="#59636e">Pi-Bolt (LTO+CFG AOT)</text>
<path d="M233,1914 h507.7 a4,4 0 0 1 4,4 v8 a4,4 0 0 1 -4,4 h-507.7 z" fill="#2a78d6"/>
<text x="752.7" y="1926.5" font-size="13.5" font-weight="650" fill="#1f2328">17 ms</text>
<text x="223" y="1956.5" font-size="13.5" text-anchor="end" fill="#59636e">Pi 1.0.3 on stock Bun 1.4.2</text>
<path d="M233,1944 h489.6 a4,4 0 0 1 4,4 v8 a4,4 0 0 1 -4,4 h-489.6 z" fill="#848d97"/>
<text x="734.6" y="1956.5" font-size="13.5" font-weight="400" fill="#1f2328">16 ms</text>
<text x="223" y="1986.5" font-size="13.5" text-anchor="end" fill="#59636e">Node 22</text>
<path d="M233,1974 h535.0 a4,4 0 0 1 4,4 v8 a4,4 0 0 1 -4,4 h-535.0 z" fill="#848d97"/>
<text x="780.0" y="1986.5" font-size="13.5" font-weight="400" fill="#1f2328">18 ms</text>
<text x="223" y="2016.5" font-size="13.5" text-anchor="end" fill="#59636e">Node 24</text>
<path d="M233,2004 h507.7 a4,4 0 0 1 4,4 v8 a4,4 0 0 1 -4,4 h-507.7 z" fill="#848d97"/>
<text x="752.7" y="2016.5" font-size="13.5" font-weight="400" fill="#1f2328">17 ms</text>
<line x1="233" y1="1908" x2="233" y2="2026" stroke="#d1d9e0"/>
<text x="24" y="2076" font-size="15" font-weight="600" fill="#1f2328">Frame time p99, 50 KB file written</text>
<text x="223" y="2106.5" font-size="13.5" text-anchor="end" fill="#59636e">Pi-Bolt (LTO+CFG AOT)</text>
<path d="M233,2094 h151.4 a4,4 0 0 1 4,4 v8 a4,4 0 0 1 -4,4 h-151.4 z" fill="#2a78d6"/>
<text x="396.4" y="2106.5" font-size="13.5" font-weight="650" fill="#1f2328">18 ms</text>
<rect x="440.2" y="2091.5" width="71.2" height="22" rx="11.0" fill="#ddeaf9"/><text x="447.2" y="2106.5" font-size="12" font-weight="600" fill="#1f2328">2.7× less</text>
<text x="223" y="2136.5" font-size="13.5" text-anchor="end" fill="#59636e">Pi 1.0.3 on stock Bun 1.4.2</text>
<path d="M233,2124 h409.5 a4,4 0 0 1 4,4 v8 a4,4 0 0 1 -4,4 h-409.5 z" fill="#848d97"/>
<text x="654.5" y="2136.5" font-size="13.5" font-weight="400" fill="#1f2328">47 ms</text>
<text x="223" y="2166.5" font-size="13.5" text-anchor="end" fill="#59636e">Node 22</text>
<path d="M233,2154 h305.9 a4,4 0 0 1 4,4 v8 a4,4 0 0 1 -4,4 h-305.9 z" fill="#848d97"/>
<text x="550.9" y="2166.5" font-size="13.5" font-weight="400" fill="#1f2328">35 ms</text>
<text x="223" y="2196.5" font-size="13.5" text-anchor="end" fill="#59636e">Node 24</text>
<path d="M233,2184 h535.0 a4,4 0 0 1 4,4 v8 a4,4 0 0 1 -4,4 h-535.0 z" fill="#848d97"/>
<text x="780.0" y="2196.5" font-size="13.5" font-weight="400" fill="#1f2328">61 ms</text>
<line x1="233" y1="2088" x2="233" y2="2206" stroke="#d1d9e0"/>
<text x="24" y="2256" font-size="15" font-weight="600" fill="#1f2328">Longest stall, 50 KB file written</text>
<text x="223" y="2286.5" font-size="13.5" text-anchor="end" fill="#59636e">Pi-Bolt (LTO+CFG AOT)</text>
<path d="M233,2274 h28.2 a4,4 0 0 1 4,4 v8 a4,4 0 0 1 -4,4 h-28.2 z" fill="#2a78d6"/>
<text x="273.2" y="2286.5" font-size="13.5" font-weight="650" fill="#1f2328">116 ms</text>
<rect x="324.1" y="2271.5" width="64.9" height="22" rx="11.0" fill="#ddeaf9"/><text x="331.1" y="2286.5" font-size="12" font-weight="600" fill="#1f2328">17× less</text>
<text x="223" y="2316.5" font-size="13.5" text-anchor="end" fill="#59636e">Pi 1.0.3 on stock Bun 1.4.2</text>
<path d="M233,2304 h535.0 a4,4 0 0 1 4,4 v8 a4,4 0 0 1 -4,4 h-535.0 z" fill="#848d97"/>
<text x="780.0" y="2316.5" font-size="13.5" font-weight="400" fill="#1f2328">1,946 ms</text>
<text x="223" y="2346.5" font-size="13.5" text-anchor="end" fill="#59636e">Node 22</text>
<path d="M233,2334 h356.9 a4,4 0 0 1 4,4 v8 a4,4 0 0 1 -4,4 h-356.9 z" fill="#848d97"/>
<text x="601.9" y="2346.5" font-size="13.5" font-weight="400" fill="#1f2328">1,303 ms</text>
<text x="223" y="2376.5" font-size="13.5" text-anchor="end" fill="#59636e">Node 24</text>
<path d="M233,2364 h249.3 a4,4 0 0 1 4,4 v8 a4,4 0 0 1 -4,4 h-249.3 z" fill="#848d97"/>
<text x="494.3" y="2376.5" font-size="13.5" font-weight="400" fill="#1f2328">915 ms</text>
<line x1="233" y1="2268" x2="233" y2="2386" stroke="#d1d9e0"/>
<text x="24" y="2436" font-size="15" font-weight="600" fill="#1f2328">Frame time p99, 200 KB file written</text>
<text x="223" y="2466.5" font-size="13.5" text-anchor="end" fill="#59636e">Pi-Bolt (LTO+CFG AOT)</text>
<path d="M233,2454 h75.5 a4,4 0 0 1 4,4 v8 a4,4 0 0 1 -4,4 h-75.5 z" fill="#2a78d6"/>
<text x="320.5" y="2466.5" font-size="13.5" font-weight="650" fill="#1f2328">18 ms</text>
<rect x="364.3" y="2451.5" width="71.2" height="22" rx="11.0" fill="#ddeaf9"/><text x="371.3" y="2466.5" font-size="12" font-weight="600" fill="#1f2328">6.8× less</text>
<text x="223" y="2496.5" font-size="13.5" text-anchor="end" fill="#59636e">Pi 1.0.3 on stock Bun 1.4.2</text>
<path d="M233,2484 h535.0 a4,4 0 0 1 4,4 v8 a4,4 0 0 1 -4,4 h-535.0 z" fill="#848d97"/>
<text x="780.0" y="2496.5" font-size="13.5" font-weight="400" fill="#1f2328">124 ms</text>
<text x="223" y="2526.5" font-size="13.5" text-anchor="end" fill="#59636e">Node 22</text>
<path d="M233,2514 h194.2 a4,4 0 0 1 4,4 v8 a4,4 0 0 1 -4,4 h-194.2 z" fill="#848d97"/>
<text x="439.2" y="2526.5" font-size="13.5" font-weight="400" fill="#1f2328">46 ms</text>
<text x="223" y="2556.5" font-size="13.5" text-anchor="end" fill="#59636e">Node 24</text>
<path d="M233,2544 h322.0 a4,4 0 0 1 4,4 v8 a4,4 0 0 1 -4,4 h-322.0 z" fill="#848d97"/>
<text x="567.0" y="2556.5" font-size="13.5" font-weight="400" fill="#1f2328">75 ms</text>
<line x1="233" y1="2448" x2="233" y2="2566" stroke="#d1d9e0"/>
<text x="24" y="2616" font-size="15" font-weight="600" fill="#1f2328">Longest stall, 200 KB file written</text>
<text x="223" y="2646.5" font-size="13.5" text-anchor="end" fill="#59636e">Pi-Bolt (LTO+CFG AOT)</text>
<path d="M233,2634 h0.0 a4,4 0 0 1 4,4 v8 a4,4 0 0 1 -4,4 h0.0 z" fill="#2a78d6"/>
<text x="245.0" y="2646.5" font-size="13.5" font-weight="650" fill="#1f2328">62 ms</text>
<rect x="288.8" y="2631.5" width="71.2" height="22" rx="11.0" fill="#ddeaf9"/><text x="295.8" y="2646.5" font-size="12" font-weight="600" fill="#1f2328">427× less</text>
<text x="223" y="2676.5" font-size="13.5" text-anchor="end" fill="#59636e">Pi 1.0.3 on stock Bun 1.4.2</text>
<path d="M233,2664 h259.4 a4,4 0 0 1 4,4 v8 a4,4 0 0 1 -4,4 h-259.4 z" fill="#848d97"/>
<text x="504.4" y="2676.5" font-size="13.5" font-weight="400" fill="#1f2328">26,515 ms</text>
<text x="223" y="2706.5" font-size="13.5" text-anchor="end" fill="#59636e">Node 22</text>
<path d="M233,2694 h535.0 a4,4 0 0 1 4,4 v8 a4,4 0 0 1 -4,4 h-535.0 z" fill="#848d97"/>
<text x="780.0" y="2706.5" font-size="13.5" font-weight="400" fill="#1f2328">54,249 ms</text>
<text x="223" y="2736.5" font-size="13.5" text-anchor="end" fill="#59636e">Node 24</text>
<path d="M233,2724 h429.6 a4,4 0 0 1 4,4 v8 a4,4 0 0 1 -4,4 h-429.6 z" fill="#848d97"/>
<text x="674.6" y="2736.5" font-size="13.5" font-weight="400" fill="#1f2328">43,644 ms</text>
<line x1="233" y1="2628" x2="233" y2="2746" stroke="#d1d9e0"/>
<text x="24" y="2796" font-size="15" font-weight="600" fill="#1f2328">GC pause p99, 20,000-char answer</text>
<text x="223" y="2826.5" font-size="13.5" text-anchor="end" fill="#59636e">Pi-Bolt (LTO+CFG AOT)</text>
<path d="M233,2814 h288.2 a4,4 0 0 1 4,4 v8 a4,4 0 0 1 -4,4 h-288.2 z" fill="#2a78d6"/>
<text x="533.2" y="2826.5" font-size="13.5" font-weight="650" fill="#1f2328">2.2 ms</text>
<rect x="584.2" y="2811.5" width="71.2" height="22" rx="11.0" fill="#ddeaf9"/><text x="591.2" y="2826.5" font-size="12" font-weight="600" fill="#1f2328">1.8× less</text>
<text x="223" y="2856.5" font-size="13.5" text-anchor="end" fill="#59636e">Pi 1.0.3 on stock Bun 1.4.2</text>
<path d="M233,2844 h535.0 a4,4 0 0 1 4,4 v8 a4,4 0 0 1 -4,4 h-535.0 z" fill="#848d97"/>
<text x="780.0" y="2856.5" font-size="13.5" font-weight="400" fill="#1f2328">4.2 ms</text>
<text x="223" y="2886.5" font-size="13.5" text-anchor="end" fill="#59636e">Node 22</text>
<path d="M233,2874 h138.9 a4,4 0 0 1 4,4 v8 a4,4 0 0 1 -4,4 h-138.9 z" fill="#848d97"/>
<text x="383.9" y="2886.5" font-size="13.5" font-weight="400" fill="#1f2328">1.1 ms</text>
<text x="223" y="2916.5" font-size="13.5" text-anchor="end" fill="#59636e">Node 24</text>
<path d="M233,2904 h209.0 a4,4 0 0 1 4,4 v8 a4,4 0 0 1 -4,4 h-209.0 z" fill="#848d97"/>
<text x="454.0" y="2916.5" font-size="13.5" font-weight="400" fill="#1f2328">1.6 ms</text>
<line x1="233" y1="2808" x2="233" y2="2926" stroke="#d1d9e0"/>
<text x="24" y="2976" font-size="15" font-weight="600" fill="#1f2328">GC pause p99, 50 KB file written</text>
<text x="223" y="3006.5" font-size="13.5" text-anchor="end" fill="#59636e">Pi-Bolt (LTO+CFG AOT)</text>
<path d="M233,2994 h200.2 a4,4 0 0 1 4,4 v8 a4,4 0 0 1 -4,4 h-200.2 z" fill="#2a78d6"/>
<text x="445.2" y="3006.5" font-size="13.5" font-weight="650" fill="#1f2328">2.6 ms</text>
<rect x="496.1" y="2991.5" width="71.2" height="22" rx="11.0" fill="#ddeaf9"/><text x="503.1" y="3006.5" font-size="12" font-weight="600" fill="#1f2328">1.3× less</text>
<text x="223" y="3036.5" font-size="13.5" text-anchor="end" fill="#59636e">Pi 1.0.3 on stock Bun 1.4.2</text>
<path d="M233,3024 h254.8 a4,4 0 0 1 4,4 v8 a4,4 0 0 1 -4,4 h-254.8 z" fill="#848d97"/>
<text x="499.8" y="3036.5" font-size="13.5" font-weight="400" fill="#1f2328">3.3 ms</text>
<text x="223" y="3066.5" font-size="13.5" text-anchor="end" fill="#59636e">Node 22</text>
<path d="M233,3054 h123.4 a4,4 0 0 1 4,4 v8 a4,4 0 0 1 -4,4 h-123.4 z" fill="#848d97"/>
<text x="368.4" y="3066.5" font-size="13.5" font-weight="400" fill="#1f2328">1.6 ms</text>
<text x="223" y="3096.5" font-size="13.5" text-anchor="end" fill="#59636e">Node 24</text>
<path d="M233,3084 h535.0 a4,4 0 0 1 4,4 v8 a4,4 0 0 1 -4,4 h-535.0 z" fill="#848d97"/>
<text x="780.0" y="3096.5" font-size="13.5" font-weight="400" fill="#1f2328">6.8 ms</text>
<line x1="233" y1="2988" x2="233" y2="3106" stroke="#d1d9e0"/>
<text x="24" y="3156" font-size="15" font-weight="600" fill="#1f2328">Longest GC pause</text>
<text x="223" y="3186.5" font-size="13.5" text-anchor="end" fill="#59636e">Pi-Bolt (LTO+CFG AOT)</text>
<path d="M233,3174 h50.5 a4,4 0 0 1 4,4 v8 a4,4 0 0 1 -4,4 h-50.5 z" fill="#2a78d6"/>
<text x="295.5" y="3186.5" font-size="13.5" font-weight="650" fill="#1f2328">2.9 ms</text>
<rect x="346.4" y="3171.5" width="71.2" height="22" rx="11.0" fill="#ddeaf9"/><text x="353.4" y="3186.5" font-size="12" font-weight="600" fill="#1f2328">9.9× less</text>
<text x="223" y="3216.5" font-size="13.5" text-anchor="end" fill="#59636e">Pi 1.0.3 on stock Bun 1.4.2</text>
<path d="M233,3204 h535.0 a4,4 0 0 1 4,4 v8 a4,4 0 0 1 -4,4 h-535.0 z" fill="#848d97"/>
<text x="780.0" y="3216.5" font-size="13.5" font-weight="400" fill="#1f2328">29 ms</text>
<text x="223" y="3246.5" font-size="13.5" text-anchor="end" fill="#59636e">Node 22</text>
<path d="M233,3234 h67.8 a4,4 0 0 1 4,4 v8 a4,4 0 0 1 -4,4 h-67.8 z" fill="#848d97"/>
<text x="312.8" y="3246.5" font-size="13.5" font-weight="400" fill="#1f2328">3.8 ms</text>
<text x="223" y="3276.5" font-size="13.5" text-anchor="end" fill="#59636e">Node 24</text>
<path d="M233,3264 h168.0 a4,4 0 0 1 4,4 v8 a4,4 0 0 1 -4,4 h-168.0 z" fill="#848d97"/>
<text x="413.0" y="3276.5" font-size="13.5" font-weight="400" fill="#1f2328">9.2 ms</text>
<line x1="233" y1="3168" x2="233" y2="3286" stroke="#d1d9e0"/>
</svg>
