<svg xmlns="http://www.w3.org/2000/svg" width="880" height="262" viewBox="0 0 880 262" role="img" aria-label="Pi-Bolt compared with Bun and Node">
<style>text{font-family:-apple-system, BlinkMacSystemFont, 'Segoe UI', 'Noto Sans', Helvetica, Arial, sans-serif}</style>
<rect x="24.0" y="4" width="197.5" height="254" rx="12" fill="#f6f8fa" stroke="#d1d9e0"/>
<text x="40.0" y="32" font-size="13.5" font-weight="600" fill="#59636e">Ready to type</text>
<text x="40.0" y="74" font-size="38" font-weight="700" fill="#1f2328">100<tspan font-size="17" font-weight="600" fill="#59636e" dx="5">ms</tspan></text>
<rect x="40.0" y="86.5" width="139.9" height="22.5" rx="11.2" fill="#ddeaf9"/><text x="47.0" y="102.0" font-size="12.5" font-weight="600" fill="#1f2328">1.7× faster than Pi</text>
<text x="40.0" y="136" font-size="12.5" font-weight="650" fill="#1f2328">Pi-Bolt</text>
<text x="205.5" y="136" font-size="12.5" font-weight="650" text-anchor="end" fill="#1f2328">100 ms</text>
<rect x="40.0" y="143" width="165.5" height="8" rx="4" fill="#d1d9e0" opacity="0.55"/>
<rect x="40.0" y="143" width="48.0" height="8" rx="4" fill="#2a78d6"/>
<text x="40.0" y="166" font-size="12.5" font-weight="400" fill="#59636e">Pi</text>
<text x="205.5" y="166" font-size="12.5" font-weight="400" text-anchor="end" fill="#1f2328">165 ms</text>
<rect x="40.0" y="173" width="165.5" height="8" rx="4" fill="#d1d9e0" opacity="0.55"/>
<rect x="40.0" y="173" width="79.5" height="8" rx="4" fill="#848d97"/>
<text x="40.0" y="196" font-size="12.5" font-weight="400" fill="#59636e">Node</text>
<text x="205.5" y="196" font-size="12.5" font-weight="400" text-anchor="end" fill="#1f2328">344 ms</text>
<rect x="40.0" y="203" width="165.5" height="8" rx="4" fill="#d1d9e0" opacity="0.55"/>
<rect x="40.0" y="203" width="165.5" height="8" rx="4" fill="#848d97"/>
<text x="40.0" y="226" font-size="12.5" font-weight="400" fill="#59636e">Node</text>
<text x="205.5" y="226" font-size="12.5" font-weight="400" text-anchor="end" fill="#1f2328">311 ms</text>
<rect x="40.0" y="233" width="165.5" height="8" rx="4" fill="#d1d9e0" opacity="0.55"/>
<rect x="40.0" y="233" width="149.7" height="8" rx="4" fill="#848d97"/>
<rect x="235.5" y="4" width="197.5" height="254" rx="12" fill="#f6f8fa" stroke="#d1d9e0"/>
<text x="251.5" y="32" font-size="13.5" font-weight="600" fill="#59636e">CPU per session</text>
<text x="251.5" y="74" font-size="38" font-weight="700" fill="#1f2328">317<tspan font-size="17" font-weight="600" fill="#59636e" dx="5">ms</tspan></text>
<rect x="251.5" y="86.5" width="126.6" height="22.5" rx="11.2" fill="#ddeaf9"/><text x="258.5" y="102.0" font-size="12.5" font-weight="600" fill="#1f2328">2.5× less than Pi</text>
<text x="251.5" y="136" font-size="12.5" font-weight="650" fill="#1f2328">Pi-Bolt</text>
<text x="417.0" y="136" font-size="12.5" font-weight="650" text-anchor="end" fill="#1f2328">317 ms</text>
<rect x="251.5" y="143" width="165.5" height="8" rx="4" fill="#d1d9e0" opacity="0.55"/>
<rect x="251.5" y="143" width="43.3" height="8" rx="4" fill="#2a78d6"/>
<text x="251.5" y="166" font-size="12.5" font-weight="400" fill="#59636e">Pi</text>
<text x="417.0" y="166" font-size="12.5" font-weight="400" text-anchor="end" fill="#1f2328">791 ms</text>
<rect x="251.5" y="173" width="165.5" height="8" rx="4" fill="#d1d9e0" opacity="0.55"/>
<rect x="251.5" y="173" width="108.3" height="8" rx="4" fill="#848d97"/>
<text x="251.5" y="196" font-size="12.5" font-weight="400" fill="#59636e">Node</text>
<text x="417.0" y="196" font-size="12.5" font-weight="400" text-anchor="end" fill="#1f2328">1,209 ms</text>
<rect x="251.5" y="203" width="165.5" height="8" rx="4" fill="#d1d9e0" opacity="0.55"/>
<rect x="251.5" y="203" width="165.5" height="8" rx="4" fill="#848d97"/>
<text x="251.5" y="226" font-size="12.5" font-weight="400" fill="#59636e">Node</text>
<text x="417.0" y="226" font-size="12.5" font-weight="400" text-anchor="end" fill="#1f2328">1,134 ms</text>
<rect x="251.5" y="233" width="165.5" height="8" rx="4" fill="#d1d9e0" opacity="0.55"/>
<rect x="251.5" y="233" width="155.2" height="8" rx="4" fill="#848d97"/>
<rect x="447.0" y="4" width="197.5" height="254" rx="12" fill="#f6f8fa" stroke="#d1d9e0"/>
<text x="463.0" y="32" font-size="13.5" font-weight="600" fill="#59636e">CPU while streaming</text>
<text x="463.0" y="74" font-size="38" font-weight="700" fill="#1f2328">810<tspan font-size="17" font-weight="600" fill="#59636e" dx="5">ms</tspan></text>
<rect x="463.0" y="86.5" width="126.6" height="22.5" rx="11.2" fill="#ddeaf9"/><text x="470.0" y="102.0" font-size="12.5" font-weight="600" fill="#1f2328">1.2× less than Pi</text>
<text x="463.0" y="136" font-size="12.5" font-weight="650" fill="#1f2328">Pi-Bolt</text>
<text x="628.5" y="136" font-size="12.5" font-weight="650" text-anchor="end" fill="#1f2328">810 ms</text>
<rect x="463.0" y="143" width="165.5" height="8" rx="4" fill="#d1d9e0" opacity="0.55"/>
<rect x="463.0" y="143" width="93.3" height="8" rx="4" fill="#2a78d6"/>
<text x="463.0" y="166" font-size="12.5" font-weight="400" fill="#59636e">Pi</text>
<text x="628.5" y="166" font-size="12.5" font-weight="400" text-anchor="end" fill="#1f2328">931 ms</text>
<rect x="463.0" y="173" width="165.5" height="8" rx="4" fill="#d1d9e0" opacity="0.55"/>
<rect x="463.0" y="173" width="107.4" height="8" rx="4" fill="#848d97"/>
<text x="463.0" y="196" font-size="12.5" font-weight="400" fill="#59636e">Node</text>
<text x="628.5" y="196" font-size="12.5" font-weight="400" text-anchor="end" fill="#1f2328">1,436 ms</text>
<rect x="463.0" y="203" width="165.5" height="8" rx="4" fill="#d1d9e0" opacity="0.55"/>
<rect x="463.0" y="203" width="165.5" height="8" rx="4" fill="#848d97"/>
<text x="463.0" y="226" font-size="12.5" font-weight="400" fill="#59636e">Node</text>
<text x="628.5" y="226" font-size="12.5" font-weight="400" text-anchor="end" fill="#1f2328">1,198 ms</text>
<rect x="463.0" y="233" width="165.5" height="8" rx="4" fill="#d1d9e0" opacity="0.55"/>
<rect x="463.0" y="233" width="138.1" height="8" rx="4" fill="#848d97"/>
<rect x="658.5" y="4" width="197.5" height="254" rx="12" fill="#f6f8fa" stroke="#d1d9e0"/>
<text x="674.5" y="32" font-size="13.5" font-weight="600" fill="#59636e">Memory, long session</text>
<text x="674.5" y="74" font-size="38" font-weight="700" fill="#1f2328">370<tspan font-size="17" font-weight="600" fill="#59636e" dx="5">MB</tspan></text>
<rect x="674.5" y="86.5" width="126.6" height="22.5" rx="11.2" fill="#ddeaf9"/><text x="681.5" y="102.0" font-size="12.5" font-weight="600" fill="#1f2328">1.3× less than Pi</text>
<text x="674.5" y="136" font-size="12.5" font-weight="650" fill="#1f2328">Pi-Bolt</text>
<text x="840.0" y="136" font-size="12.5" font-weight="650" text-anchor="end" fill="#1f2328">370 MB</text>
<rect x="674.5" y="143" width="165.5" height="8" rx="4" fill="#d1d9e0" opacity="0.55"/>
<rect x="674.5" y="143" width="130.5" height="8" rx="4" fill="#2a78d6"/>
<text x="674.5" y="166" font-size="12.5" font-weight="400" fill="#59636e">Pi</text>
<text x="840.0" y="166" font-size="12.5" font-weight="400" text-anchor="end" fill="#1f2328">469 MB</text>
<rect x="674.5" y="173" width="165.5" height="8" rx="4" fill="#d1d9e0" opacity="0.55"/>
<rect x="674.5" y="173" width="165.5" height="8" rx="4" fill="#848d97"/>
<text x="674.5" y="196" font-size="12.5" font-weight="400" fill="#59636e">Node</text>
<text x="840.0" y="196" font-size="12.5" font-weight="400" text-anchor="end" fill="#1f2328">433 MB</text>
<rect x="674.5" y="203" width="165.5" height="8" rx="4" fill="#d1d9e0" opacity="0.55"/>
<rect x="674.5" y="203" width="152.8" height="8" rx="4" fill="#848d97"/>
<text x="674.5" y="226" font-size="12.5" font-weight="400" fill="#59636e">Node</text>
<text x="840.0" y="226" font-size="12.5" font-weight="400" text-anchor="end" fill="#1f2328">452 MB</text>
<rect x="674.5" y="233" width="165.5" height="8" rx="4" fill="#d1d9e0" opacity="0.55"/>
<rect x="674.5" y="233" width="159.6" height="8" rx="4" fill="#848d97"/>
</svg>
