<svg xmlns="http://www.w3.org/2000/svg" viewBox="0 0 128 128" width="128" height="128" role="img" aria-label="OpenRouter">
  <title>OpenRouter</title>
  <defs>
    <linearGradient id="bg" x1="0" y1="0" x2="1" y2="1"><stop offset="0" stop-color="#13233A"/><stop offset="1" stop-color="#0A1424"/></linearGradient>
    <linearGradient id="gold" gradientUnits="userSpaceOnUse" x1="0" y1="20" x2="0" y2="108"><stop offset="0" stop-color="#F7C04A"/><stop offset="1" stop-color="#E9A42C"/></linearGradient>
    <linearGradient id="blue" gradientUnits="userSpaceOnUse" x1="0" y1="20" x2="0" y2="108"><stop offset="0" stop-color="#4C96EA"/><stop offset="1" stop-color="#2A78D6"/></linearGradient>
  </defs>
  <rect x="2" y="2" width="124" height="124" rx="28" fill="url(#bg)"/>
  <rect x="2.5" y="2.5" width="123" height="123" rx="27.5" fill="none" stroke="#FFFFFF" stroke-opacity="0.08"/>
  <g fill="none" stroke-linecap="round" stroke-linejoin="round">
    <path d="M24 64 H52 C66 64 66 40 80 40 H98 M52 64 C66 64 66 88 80 88 H98 M52 64 H98" stroke="#9FB3CC" stroke-width="5"/>
    <circle cx="28" cy="64" r="9" fill="url(#blue)" stroke="none"/>
    <circle cx="100" cy="40" r="8" fill="url(#blue)" stroke="none"/><circle cx="100" cy="64" r="8" fill="url(#blue)" stroke="none"/><circle cx="100" cy="88" r="8" fill="url(#blue)" stroke="none"/>
  </g>
  <g transform="translate(100 12) scale(0.034)">
    <polygon fill="#F7C04A" points="540,100 220,460 390,460"/><polygon fill="#E9A42C" points="540,100 390,460 430,320"/>
    <polygon fill="#4C96EA" points="430,320 390,460 300,700"/><polygon fill="#2A78D6" points="430,320 300,700 600,320"/>
  </g>
</svg>
